<svg id="Group_980" data-name="Group 980" xmlns="http://www.w3.org/2000/svg" viewBox="0 0 215.609 96">
  <defs>
    <style>
      .logo-fill-1{fill:#3d195b}.logo-fill-2{fill:#e62a32}
    </style>
  </defs>
  <path id="Path_1320" data-name="Path 1320" class="logo-fill-1" d="M0 99.453c.98-2.548 2.091-5.488 3.463-8.886s2.809-6.991 4.378-10.78c1.633-3.855 3.267-7.71 4.966-11.7s3.4-7.775 5.031-11.5a8.5 8.5 0 0 1 3.2-4.116A9.156 9.156 0 0 1 26 51.3a8.771 8.771 0 0 1 2.287.261 14.754 14.754 0 0 1 2.025.653c.588.261 1.045.523 1.437.719s.588.392.653.392a59.8 59.8 0 0 1 2.679 5.423c1.111 2.483 2.352 5.227 3.659 8.3s2.679 6.272 4.116 9.67 2.744 6.6 3.92 9.6 2.287 5.684 3.2 8.036 1.568 4.051 1.895 5.031H39.267c-.523-1.307-1.045-2.809-1.633-4.378q-.882-2.45-2.156-5.684H15.55c-.719 1.895-1.372 3.659-1.96 5.227s-1.176 3.2-1.829 4.835H0zM31.557 79q-.686-1.862-1.568-4.116c-.588-1.5-1.176-3.005-1.7-4.443s-1.045-2.744-1.568-3.986a60.561 60.561 0 0 0-1.111-2.679c-.261.653-.653 1.568-1.111 2.679-.457 1.176-.98 2.483-1.5 3.92s-1.111 2.875-1.7 4.378S20.189 77.7 19.666 79z" transform="translate(0 -17.761)"></path>
  <path id="Path_1321" data-name="Path 1321" class="logo-fill-1" d="M84 52.835a4.2 4.2 0 0 1 1.568-3.724A7.21 7.21 0 0 1 89.75 48a10.542 10.542 0 0 1 3.332.457c.98.327 1.633.523 1.895.588v49.264H84z" transform="translate(-29.117 -16.617)"></path>
  <path id="Path_1322" data-name="Path 1322" class="logo-fill-1" d="M110.8 52.835a4.194 4.194 0 0 1 1.568-3.724A7.209 7.209 0 0 1 116.55 48a10.542 10.542 0 0 1 3.332.457c.98.327 1.633.523 1.895.588v49.264H110.8z" transform="translate(-38.408 -16.617)"></path>
  <path id="Path_1323" data-name="Path 1323" class="logo-fill-1" d="M168.875 105.912c-.261.065-.915.2-1.829.327-.98.131-2.156.261-3.594.392s-3.071.261-4.9.327-3.79.131-5.815.131a35.181 35.181 0 0 1-8.624-.915 15.29 15.29 0 0 1-5.488-2.483 8.445 8.445 0 0 1-2.875-3.659 12.42 12.42 0 0 1-.849-4.377c0-4.182 1.372-7.187 4.051-8.951 2.679-1.829 6.926-2.679 12.741-2.679 1.437 0 2.679 0 3.659.065s1.764.131 2.417.2a4.239 4.239 0 0 0-1.96-3.724q-1.96-1.372-6.468-1.372a20.754 20.754 0 0 0-3.724.261 14.359 14.359 0 0 0-2.744.588 14.185 14.185 0 0 0-1.829.653 6.119 6.119 0 0 0-.98.523l-.523-.523c-.261-.261-.523-.653-.849-1.045a9.831 9.831 0 0 1-.719-1.437 3.869 3.869 0 0 1-.327-1.764c0-3.985 4.051-5.946 12.152-5.946a38.93 38.93 0 0 1 7.448.719 15.577 15.577 0 0 1 6.011 2.483 12.155 12.155 0 0 1 4.051 4.639 15.65 15.65 0 0 1 1.437 7.187v20.385zM157.9 91.6c-.392-.065-1.045-.2-1.829-.261s-1.96-.131-3.594-.131a15.041 15.041 0 0 0-3.332.327 5.861 5.861 0 0 0-2.025.915 3.62 3.62 0 0 0-.98 1.307 4.391 4.391 0 0 0-.261 1.568 4.881 4.881 0 0 0 .2 1.307 2.672 2.672 0 0 0 .915 1.241 5.336 5.336 0 0 0 2.025.915 13.343 13.343 0 0 0 3.594.392c1.176 0 2.287-.065 3.267-.131a8.152 8.152 0 0 0 1.96-.261V91.6z" transform="translate(-46.762 -24.417)"></path>
  <path id="Path_1324" data-name="Path 1324" class="logo-fill-1" d="M198.286 110.248c.2.065.588.261 1.176.457a22.645 22.645 0 0 0 2.287.588 31.3 31.3 0 0 0 3.136.523 32.059 32.059 0 0 0 3.594.261c3.528 0 6.011-.784 7.579-2.221q2.352-2.254 2.352-7.448a8.209 8.209 0 0 1-3.986 2.483 16.783 16.783 0 0 1-5.358.915 20.515 20.515 0 0 1-5.815-.784 12.372 12.372 0 0 1-4.7-2.417 10.829 10.829 0 0 1-3.136-4.116 14.748 14.748 0 0 1-1.111-5.88V76.535a4.2 4.2 0 0 1 1.568-3.724 7.209 7.209 0 0 1 4.178-1.111 10.542 10.542 0 0 1 3.332.457c.98.327 1.633.457 1.895.588v17.641q0 3.234 1.568 4.7c1.045.98 2.613 1.437 4.835 1.437a6.311 6.311 0 0 0 4.77-1.764c1.111-1.176 1.7-3.005 1.7-5.488V76.535a4.2 4.2 0 0 1 1.568-3.724A7.209 7.209 0 0 1 223.9 71.7a10.542 10.542 0 0 1 3.332.457c.98.327 1.633.457 1.895.588v28.944a25.013 25.013 0 0 1-1.372 8.82 14.8 14.8 0 0 1-3.92 5.946 15.887 15.887 0 0 1-6.011 3.332 26.339 26.339 0 0 1-7.775 1.045 47.967 47.967 0 0 1-5.554-.327c-1.7-.2-3.136-.523-4.443-.784-1.307-.327-2.287-.588-3.071-.849a12.8 12.8 0 0 1-1.372-.523z" transform="translate(-67.352 -24.833)"></path>
  <path id="Path_1325" data-name="Path 1325" class="logo-fill-1" d="M291.441 37.142c0-.065-.066 0-.066 0-4.312 1.829-8.559 1.5-12.871.261l.784 3.136c-4.835-3.071-16.4-9.343-16.857-9.539a42.384 42.384 0 0 0-14.831 2.679v15.288a26.268 26.268 0 0 1 4.508-3.071c5.488-2.875 10.976-2.94 16.465-2.875 7.579.065 15.223.457 22.868-5.88" transform="translate(-85.828 -11.64)"></path>
  <path id="Path_1326" data-name="Path 1326" class="logo-fill-2" d="M295.579 11.619a.091.091 0 0 0-.131 0C273.887 20.9 252.261-7.46 230.7 1.883v27.768a35.523 35.523 0 0 1 7.579-5.292c6.011-3.136 12.087-3.986 18.1-4.182a122.915 122.915 0 0 0 18.229-3.005l-1.308 2.875c7.448-.457 14.831-2.221 22.28-8.363v-.065" transform="translate(-79.97 .033)"></path>
</svg>
