<svg width="154" height="44" viewBox="0 0 154 44" fill="none" xmlns="http://www.w3.org/2000/svg">
<path d="M10.8044 26.6413L8.59272 26.7407L7.19804 34.9441C6.21477 40.7286 12.2749 45.4205 18.3788 43.6033L50.0653 34.1641C53.6045 33.1095 56 30.1003 56 26.7056V19.4691C56 16.4396 54.086 13.6788 51.0807 12.3788L24.2026 0.763012C19.0003 -1.48651 12.8905 1.46417 12.0094 6.64977L10.8306 13.5824H0L13.6258 17.0823L10.2062 17.2488L9.89402 19.0952H1.12916L9.52347 21.2658L12.0444 22.0517L9.30173 22.5542L8.98953 24.3947L4.57792 24.4444L10.8044 26.6413Z" fill="url(#paint0_linear)"/>
<path d="M68.9724 29.3672C68.2217 29.7245 66.8061 30 65.1944 30C60.8067 30 58 27.3387 58 23.1362C58 19.2124 60.7209 16 65.7766 16C66.8889 16 68.1114 16.1907 69 16.5208L68.332 19.6211C67.8326 19.4001 67.0819 19.2093 65.9696 19.2093C63.7482 19.2093 62.3019 20.7747 62.3295 22.9697C62.3295 25.4131 63.9964 26.7301 66.0524 26.7301C67.0513 26.7301 67.8295 26.5666 68.4699 26.2911L68.9724 29.3672Z" fill="#231F20"/>
<path d="M80.7868 26.4706C80.7868 27.7285 80.8401 28.9593 81 29.6983H77.3218L77.079 28.359H76.999C76.1402 29.4268 74.7986 30 73.2409 30C70.5814 30 69 28.0302 69 25.8974C69 22.4253 72.0622 20.7843 76.7058 20.7843V20.6214C76.7058 19.8824 76.3297 18.8718 74.3159 18.8718C72.9743 18.8718 71.5499 19.3364 70.691 19.8824L69.9388 17.2036C70.8509 16.6848 72.6515 16 75.0415 16C79.4186 16 80.7868 18.6244 80.7868 21.7979V26.4706ZM76.8421 23.3816C74.695 23.3816 73.0306 23.9005 73.0306 25.4872C73.0306 26.5551 73.7295 27.0739 74.6417 27.0739C75.6338 27.0739 76.4956 26.3891 76.7621 25.5415C76.8154 25.3243 76.8421 25.0769 76.8421 24.8296V23.3816Z" fill="#231F20"/>
<path d="M84.1045 20.4917C84.1045 18.6223 84.0784 17.4028 84 16.312H87.4224L87.5791 18.6481H87.6836C88.3425 16.7787 89.8955 16 91.1582 16C91.5269 16 91.7097 16.0258 92 16.0773V19.7875C91.6836 19.736 91.3672 19.6844 90.9202 19.6844C89.4456 19.6844 88.447 20.4631 88.1829 21.6827C88.1306 21.9432 88.1045 22.2524 88.1045 22.5644V29H84.1045V20.4917Z" fill="#231F20"/>
<path d="M96 11H100V29H96V11Z" fill="#231F20"/>
<path d="M114 22.8643C114 27.7592 110.77 30 107.437 30C103.8 30 101 27.4304 101 23.1086C101 18.7626 103.646 16 107.664 16C111.455 16 114 18.8169 114 22.8643ZM104.993 23C104.993 25.2981 105.882 27.0203 107.538 27.0203C109.064 27.0203 110.004 25.4067 110.004 22.9729C110.004 21.0034 109.292 18.9798 107.538 18.9798C105.706 18.9798 104.993 21.0306 104.993 23Z" fill="#231F20"/>
<path d="M127.769 26.4706C127.769 27.7285 127.827 28.9593 128 29.6983H124.015L123.752 28.359H123.666C122.735 29.4268 121.282 30 119.594 30C116.713 30 115 28.0302 115 25.8974C115 22.4253 118.317 20.7843 123.348 20.7843V20.6214C123.348 19.8824 122.941 18.8718 120.759 18.8718C119.306 18.8718 117.762 19.3364 116.832 19.8824L116.017 17.2036C117.005 16.6848 118.956 16 121.542 16C126.284 16 127.766 18.6244 127.766 21.7979V26.4706H127.769ZM123.496 23.3816C121.17 23.3816 119.366 23.9005 119.366 25.4872C119.366 26.5551 120.124 27.0739 121.112 27.0739C122.187 27.0739 123.12 26.3891 123.409 25.5415C123.467 25.3243 123.496 25.0769 123.496 24.8296V23.3816Z" fill="#231F20"/>
<path d="M130.102 20.3419C130.102 18.756 130.051 17.4311 130 16.2868H133.385L133.564 18.0534H133.64C134.152 17.2217 135.41 16 137.512 16C140.077 16 142 17.7408 142 21.4862V29H138.103V21.9537C138.103 20.3161 137.54 19.1977 136.129 19.1977C135.051 19.1977 134.412 19.9519 134.129 20.6803C134.027 20.9413 134.002 21.3055 134.002 21.6669V29H130.105V20.3419H130.102Z" fill="#231F20"/>
<path d="M144.732 26.0944C145.492 26.5588 147.064 27.0776 148.284 27.0776C149.531 27.0776 150.045 26.6674 150.045 25.9828C150.045 25.271 149.638 24.9423 148.12 24.4235C145.354 23.4946 144.299 21.9897 144.326 20.4033C144.326 17.888 146.439 16 149.719 16C151.265 16 152.619 16.383 153.432 16.7932L152.726 19.6644C152.132 19.3356 150.966 18.8983 149.854 18.8983C148.852 18.8983 148.281 19.3085 148.281 19.966C148.281 20.6234 148.795 20.9492 150.422 21.5252C152.942 22.3998 153.973 23.7118 154 25.654C154 28.1693 152.075 30 148.281 30C146.547 30 145.001 29.5898 144 29.0439L144.732 26.0944Z" fill="#231F20"/>
<path d="M113.793 41.1145L115.66 31.2894H116.809L114.942 41.1145H113.793Z" fill="#231F20"/>
<path d="M121.771 40.7359C121.275 41.0101 120.459 41.2647 119.558 41.2647C117.789 41.2647 117.012 40.0439 117.012 38.5685C117.012 36.5513 118.507 34.2664 120.668 34.2664C121.941 34.2664 122.633 35.0302 122.633 35.9964C122.633 37.7525 120.654 38.2095 118.174 38.1703C118.122 38.4575 118.161 39.0842 118.311 39.4433C118.572 40.0504 119.114 40.3442 119.806 40.3442C120.596 40.3442 121.19 40.1092 121.608 39.8872L121.771 40.7359ZM120.498 35.1607C119.408 35.1607 118.592 36.2249 118.298 37.2759C120.113 37.302 121.523 37.0539 121.523 36.0029C121.523 35.4676 121.105 35.1607 120.498 35.1607Z" fill="#231F20"/>
<path d="M126.175 32.8105L125.868 34.4165H127.474L127.298 35.3174H125.692L125.085 38.5685C125 38.9406 124.948 39.2866 124.948 39.6326C124.948 40.0374 125.143 40.2855 125.587 40.2855C125.796 40.2855 125.973 40.2724 126.129 40.2332L126.077 41.1341C125.868 41.219 125.522 41.2582 125.189 41.2582C124.177 41.2582 123.779 40.651 123.779 39.959C123.779 39.5739 123.831 39.1952 123.929 38.7121L124.582 35.3239H123.629L123.792 34.423H124.745L124.98 33.1761L126.175 32.8105Z" fill="#231F20"/>
<path d="M127.614 39.9525C127.933 40.1484 128.501 40.3703 129.05 40.3703C129.827 40.3703 130.323 39.8742 130.323 39.2801C130.323 38.7513 130.088 38.438 129.383 38.0463C128.606 37.6154 128.181 37.0213 128.181 36.3293C128.181 35.1673 129.193 34.2664 130.604 34.2664C131.211 34.2664 131.752 34.4296 132.001 34.5993L131.681 35.4676C131.446 35.3305 131.015 35.1607 130.519 35.1607C129.827 35.1607 129.33 35.5916 129.33 36.1726C129.33 36.6557 129.65 36.9626 130.257 37.2955C131.002 37.7133 131.504 38.3074 131.504 39.0516C131.504 40.4617 130.368 41.2517 128.958 41.2517C128.24 41.2386 127.587 41.0297 127.287 40.7947L127.614 39.9525Z" fill="#231F20"/>
<path d="M135.29 42.6356C135.688 42.8968 136.367 43.0795 137.059 43.0795C138.195 43.0795 139.076 42.5116 139.468 40.6967L139.69 39.6848H139.664C139.07 40.6379 138.254 41.108 137.34 41.108C135.982 41.108 135.29 39.9721 135.29 38.7839C135.29 36.5121 136.948 34.2598 139.54 34.2598C140.317 34.2598 141.172 34.4817 141.701 34.7298L140.663 40.2658C140.402 41.689 140.01 42.6617 139.318 43.2689C138.639 43.8368 137.738 44 136.981 44C136.165 44 135.388 43.8042 134.977 43.53L135.29 42.6356ZM140.441 35.4088C140.219 35.3108 139.808 35.1868 139.331 35.1868C137.653 35.1868 136.491 36.9429 136.491 38.5881C136.478 39.3323 136.752 40.194 137.777 40.194C138.763 40.194 139.755 38.9471 140.003 37.648L140.441 35.4088Z" fill="#231F20"/>
<path d="M148.909 37.0409C148.909 39.1169 147.44 41.2582 145.188 41.2582C143.517 41.2582 142.57 40.0113 142.57 38.5032C142.57 36.2901 144.104 34.2533 146.278 34.2533C148.093 34.2598 148.909 35.6308 148.909 37.0409ZM143.758 38.4706C143.758 39.5608 144.366 40.3507 145.338 40.3507C146.696 40.3507 147.721 38.6077 147.721 37.0409C147.721 36.264 147.362 35.1738 146.154 35.1738C144.712 35.1738 143.758 36.9364 143.758 38.4706Z" fill="#231F20"/>
<path d="M149.629 40.4615C149.629 39.9523 149.988 39.5345 150.484 39.5345C150.954 39.5345 151.261 39.8936 151.261 40.3505C151.261 40.8598 150.902 41.2645 150.373 41.2645C149.929 41.2645 149.629 40.9054 149.629 40.4615ZM150.36 38.4247L151.45 31.7854H152.749L151.268 38.4247H150.36Z" fill="#231F20"/>
<path d="M23.1479 28.9886C22.4632 29.2825 21.326 29.497 19.7568 29.497C15.7104 29.497 13.6211 26.7171 13.6211 23.517C13.6211 19.8233 15.1491 17.2315 17.2855 15.7328C18.7636 14.6602 20.5149 14.1901 22.4514 14.1901C23.8061 14.1901 24.9139 14.4927 25.2871 14.6955L24.3233 17.6987C23.9648 17.5547 23.1831 17.3372 22.1018 17.3372C21.088 17.3372 20.0977 17.6958 19.3689 18.3452C18.2875 19.3208 17.5411 20.9135 17.5411 23.0145C17.5411 25.1009 18.6666 26.3586 20.6795 26.3586C21.5493 26.3586 22.3985 26.2234 23.0068 25.9854L23.1479 28.9886Z" fill="white"/>
<path d="M24.0234 29.2942L27.0002 13.714H30.6205L27.6437 29.2942H24.0234Z" fill="white"/>
<path d="M29.3633 29.2942L31.4291 18.4157H35.0494L32.9836 29.2942H29.3633ZM31.958 15.5947C31.958 14.4663 32.8337 13.5789 33.9474 13.5789C34.9994 13.5789 35.6723 14.2841 35.6723 15.2862C35.6723 16.5821 34.7056 17.2991 33.6271 17.2991C32.6104 17.2991 31.958 16.6173 31.958 15.5947Z" fill="white"/>
<path d="M42.3116 29.0357C41.7004 29.3207 40.7159 29.497 39.567 29.497C36.9752 29.497 35.1738 27.8309 35.1738 25.1186C35.1738 21.1163 38.1036 18.213 42.0706 18.213C42.914 18.213 43.5781 18.3247 44.0512 18.4922L43.1843 21.2955C42.8405 21.1839 42.4938 21.1163 42.0295 21.1163C40.1929 21.1163 38.9234 22.7354 38.9234 24.6896C38.9234 25.9943 39.7462 26.5996 40.6248 26.5996C41.3859 26.5996 41.9443 26.4321 42.4262 26.2617L42.3116 29.0357Z" fill="white"/>
<path d="M43.0723 29.2942L46.0255 13.714H49.6047L47.8768 22.8029H47.9209C48.2441 22.3504 48.5321 21.9096 48.8318 21.4806L50.9652 18.4157H55.2496L51.0299 23.0351L53.5129 29.2942H49.5576L48.2324 24.9304L47.2744 25.9883L46.6455 29.2971H43.0723V29.2942Z" fill="white"/>
<defs>
<linearGradient id="paint0_linear" x1="-0.000116709" y1="22.0023" x2="55.9983" y2="22.0023" gradientUnits="userSpaceOnUse">
<stop offset="0.2905" stop-color="#139AD6"/>
<stop offset="1" stop-color="#263B80"/>
</linearGradient>
</defs>
</svg>
